<?xml version="1.0"?>
<svg xmlns="http://www.w3.org/2000/svg" viewBox="0 0 50 50">
    <path fill="crimson" style="text-indent:0;text-align:start;line-height:normal;text-transform:none;block-progression:tb;-inkscape-font-specification:Sans" d="M 10 3 C 7.2504209 3 5 5.2504209 5 8 C 5 10.405882 6.7272522 12.437913 9 12.90625 L 9 37.09375 C 6.7272522 37.562087 5 39.594118 5 42 C 5 44.749579 7.2504209 47 10 47 C 12.749579 47 15 44.749579 15 42 C 15 39.594118 13.272748 37.562087 11 37.09375 L 11 12.90625 C 13.272748 12.437913 15 10.405882 15 8 C 15 5.2504209 12.749579 3 10 3 z M 23.375 3 L 23.09375 3.21875 L 18.09375 7.21875 L 17.125 8 L 18.09375 8.78125 L 23.09375 12.78125 L 23.375 13 L 23.71875 13 L 24 13 L 25 13 L 25 12 L 25 9 L 32 9 C 35.877484 9 39 12.122516 39 16 L 39 37.09375 C 36.727252 37.562087 35 39.594118 35 42 C 35 44.749579 37.250421 47 40 47 C 42.749579 47 45 44.749579 45 42 C 45 39.594118 43.272748 37.562087 41 37.09375 L 41 16 C 41 11.041484 36.958516 7 32 7 L 25 7 L 25 4 L 25 3 L 24 3 L 23.71875 3 L 23.375 3 z M 10 5 C 11.668699 5 13 6.3313011 13 8 C 13 9.6686989 11.668699 11 10 11 C 8.3313011 11 7 9.6686989 7 8 C 7 6.3313011 8.3313011 5 10 5 z M 23 5.84375 L 23 10.15625 L 20.3125 8 L 23 5.84375 z M 10 39 C 11.668699 39 13 40.331301 13 42 C 13 43.668699 11.668699 45 10 45 C 8.3313011 45 7 43.668699 7 42 C 7 40.331301 8.3313011 39 10 39 z M 40 39 C 41.668699 39 43 40.331301 43 42 C 43 43.668699 41.668699 45 40 45 C 38.331301 45 37 43.668699 37 42 C 37 40.331301 38.331301 39 40 39 z"/>
</svg>
